<?xml version="1.0" encoding="UTF-8" standalone="no"?>
<svg width="452px" height="90px" viewBox="0 0 452 90" version="1.1" xmlns="http://www.w3.org/2000/svg" xmlns:xlink="http://www.w3.org/1999/xlink">
    <!-- Generator: Sketch 43 (38999) - http://www.bohemiancoding.com/sketch -->
    <title>Desktop HD Copy 21</title>
    <desc>Created with Sketch.</desc>
    <defs>
        <polygon id="path-1" points="13.3191731 31.0199262 13.3191731 0 0 1.75765416e-13 0 31.0199262 13.3191731 31.0199262"></polygon>
        <polygon id="path-3" points="0.0995199111 24.7367832 24.2922055 24.7367832 24.2922055 0.550805706 0.0995199111 0.550805706 0.0995199111 24.7367832"></polygon>
    </defs>
    <g id="Page-1" stroke="none" stroke-width="1" fill="none" fill-rule="evenodd">
        <g id="Desktop-HD-Copy-21">
            <g id="Group" transform="translate(67.000000, 30.000000)">
                <path d="M11.6141247,11.6990804 L11.6141247,21.703735 C11.6141247,22.5502827 11.6086264,23.1741993 11.5976297,23.5754849 C11.5893822,23.9520337 11.5481447,24.4495179 11.4821646,25.0486978 C11.4051879,25.7248365 11.2842245,25.9914441 11.2347394,26.0766486 C11.097281,26.3157708 10.8965917,26.5768813 10.6381698,26.8572315 C10.4594738,27.0551258 10.2202961,27.1898038 9.90689088,27.2695112 C9.49726472,27.3739554 8.98317016,27.4261775 8.38110218,27.4261775 L7.02026362,27.4261775 L7.02026362,6.38342059 L8.29862712,6.38342059 C8.70275494,6.38342059 9.06839439,6.4109059 9.3845488,6.46037947 C9.70620155,6.51260157 9.98111844,6.57856632 10.2092994,6.6555252 C10.3632529,6.70499877 10.4979622,6.78195765 10.6134273,6.88640185 C10.7921232,7.04581667 10.9433275,7.19973443 11.0587926,7.33716101 C11.097281,7.38113751 11.1715085,7.4938273 11.2512344,7.74119513 C11.3392078,8.02154534 11.4079371,8.27166171 11.4546729,8.49429276 C11.4876629,8.63721639 11.5289005,8.90657248 11.5591413,9.37382283 C11.5838839,9.78610255 11.6003789,10.1434116 11.6058772,10.4457501 C11.6113755,10.7563342 11.6141247,11.1741109 11.6141247,11.6990804 M15.5151953,29.7954116 C16.928268,28.1078133 17.6458011,25.5214452 17.6458011,22.1105177 L17.6458011,10.657387 C17.6458011,7.30967569 16.9392647,4.98166954 15.4904527,3.53869052 C14.0416408,2.0957115 11.715844,1.39483597 8.38110218,1.39483597 L1.92055547,1.39483597 C1.4064609,1.39483597 0.98858724,1.81261276 0.98858724,2.32933667 L0.98858724,31.48301 C0.98858724,31.9969853 1.4064609,32.4147621 1.92055547,32.4147621 L8.34811216,32.4147621 C11.6498639,32.4147621 14.060885,31.5324835 15.5151953,29.7954116" id="Fill-1" fill="#FFFFFF"></path>
                <path d="M36.8116315,1.39593538 L25.355845,1.39593538 C24.8417505,1.39593538 24.4238768,1.81371217 24.4238768,2.32768755 L24.4238768,31.4813608 C24.4238768,31.9980848 24.8417505,32.4158615 25.355845,32.4158615 L36.8116315,32.4158615 C37.3257261,32.4158615 37.7435997,31.9980848 37.7435997,31.4813608 L37.7435997,28.3590291 C37.7435997,27.8423052 37.3257261,27.4272769 36.8116315,27.4272769 L30.4555532,27.4272769 L30.4555532,18.8793441 L34.7277615,18.8793441 C35.2446053,18.8793441 35.6624789,18.4615673 35.6624789,17.9475919 L35.6624789,14.8225116 C35.6624789,14.3085362 35.2446053,13.8907594 34.7277615,13.8907594 L30.4555532,13.8907594 L30.4555532,6.38452 L36.8116315,6.38452 C37.3257261,6.38452 37.7435997,5.96674322 37.7435997,5.45276783 L37.7435997,2.32768755 C37.7435997,1.81371217 37.3257261,1.39593538 36.8116315,1.39593538" id="Fill-3" fill="#FFFFFF"></path>
                <path d="M51.9645002,27.4261775 C51.2304721,27.4261775 48.9953978,27.4261775 48.7314776,22.0665411 C48.7177318,21.7861909 48.5802734,21.527829 48.3548415,21.3629171 C48.1294097,21.1952567 47.8434961,21.1375375 47.5740776,21.2062508 L43.4063376,22.2479442 C42.971969,22.3578855 42.6750587,22.7619196 42.7025504,23.2099302 C42.8757481,26.0793971 43.7362379,28.3936606 45.2565283,30.086756 C46.8180561,31.8265764 49.0751237,32.708855 51.9645002,32.708855 C54.4195079,32.708855 56.4181536,32.0189736 57.9082031,30.6584505 C59.420246,29.2759392 60.1872641,27.3574642 60.1872641,24.9579963 C60.1872641,21.5553143 58.6697229,18.600643 55.6703797,16.1764382 L50.463454,12.012413 C49.2978064,11.0834094 48.7314776,9.97575122 48.7314776,8.62347373 C48.7314776,7.87037611 48.9129228,7.32066982 49.2813114,6.93862394 C49.6442017,6.5675722 50.1802896,6.38342059 50.9225652,6.38342059 C51.8820251,6.38342059 52.5748156,6.6637708 53.036676,7.23546534 C53.5727639,7.8951129 53.9246575,8.81037387 54.0813602,9.93727178 C54.1198485,10.2808382 54.1473402,10.5392002 54.1583369,10.7123577 C54.1748319,10.9899593 54.3122903,11.2455728 54.5377222,11.4104846 C54.7604049,11.572648 55.0463184,11.6303672 55.315737,11.5616539 L59.4807277,10.522709 C59.9343406,10.4100192 60.234,9.97849975 60.1817658,9.51674646 C60.1377791,9.10171821 60.0992907,8.77464297 60.0635515,8.5327722 C59.7034104,6.19377192 58.7247063,4.3495073 57.1576801,3.04945192 C55.5961522,1.75764213 53.5012855,1.10349164 50.9225652,1.10349164 C48.4868016,1.10349164 46.4854067,1.82910394 44.976113,3.26383737 C43.4558227,4.70956492 42.6833062,6.66102227 42.6833062,9.06323877 C42.6833062,10.6766267 43.004959,12.141594 43.6345187,13.4196611 C44.2640783,14.6977283 45.1190698,15.766907 46.1747506,16.5914665 L51.3816764,20.7554916 C51.8517842,21.134789 52.222922,21.4481216 52.4813439,21.6927409 C52.7260199,21.9236175 53.0119335,22.2451957 53.3335862,22.6492298 C53.6085031,22.9982933 53.8146908,23.3858363 53.9494001,23.803613 C54.0868585,24.2351325 54.1555877,24.7161255 54.1555877,25.2355979 C54.1555877,26.8105065 53.5425231,27.4261775 51.9645002,27.4261775" id="Fill-5" fill="#FFFFFF"></path>
                <path d="M72.590964,31.4824603 L72.590964,2.32878697 C72.590964,1.81206305 72.1730903,1.3970348 71.6589957,1.3970348 L67.494005,1.3970348 C66.9771612,1.3970348 66.5592876,1.81206305 66.5592876,2.32878697 L66.5592876,31.4824603 C66.5592876,31.9964356 66.9771612,32.4142124 67.494005,32.4142124 L71.6589957,32.4142124 C72.1730903,32.4142124 72.590964,31.9964356 72.590964,31.4824603" id="Fill-7" fill="#FFFFFF"></path>
                <g id="Group-11" transform="translate(78.753776, 0.465283)" fill="#FFFFFF">
                    <path d="M18.5046553,15.5399221 L10.1719246,15.5399221 C9.65783005,15.5399221 9.23995639,15.9576989 9.23995639,16.4716742 L9.23995639,19.5637721 C9.23995639,20.0777475 9.65783005,20.4955243 10.1719246,20.4955243 L13.4049471,20.4955243 L13.4049471,20.6054656 C13.4049471,21.4107853 13.3774555,22.1336491 13.3197229,22.7493201 C13.2647395,23.3457514 13.157522,23.958674 12.9980702,24.5660994 C12.8523642,25.1185542 12.6599224,25.5693134 12.426243,25.9046342 C12.2118079,26.2124698 11.9231452,26.4598376 11.5410107,26.6632289 C11.1698729,26.8611232 10.7080125,26.9600703 10.1719246,26.9600703 C9.70731509,26.9600703 9.3004381,26.8941056 8.96229034,26.7594275 C8.64888509,26.6329951 8.39871073,26.4625861 8.19802141,26.2317095 C7.95884372,25.9541078 7.75265606,25.6407752 7.5904551,25.2999573 C7.42550497,24.9508938 7.29904321,24.5248714 7.2110698,24.0273872 C7.11209973,23.483178 7.04337051,22.9389688 7.00213297,22.4112507 C6.96089544,21.8752871 6.93890209,21.2678617 6.93890209,20.6054656 L6.93890209,11.2329733 C6.93890209,10.3506947 6.9993838,9.57286025 7.12034723,8.92145829 C7.23306315,8.30578724 7.4227558,7.73958976 7.68942518,7.23111144 C7.90935868,6.80783759 8.22001476,6.49450501 8.63513925,6.27462249 C9.07500626,6.03824878 9.64683337,5.92006193 10.3368747,5.92006193 C10.8344743,5.92006193 11.2550971,5.98877522 11.5932449,6.12345326 C11.9093993,6.24713717 12.1568245,6.406552 12.3300221,6.5989492 C12.5114673,6.799592 12.6626716,7.07719368 12.7781367,7.42625717 C12.9155951,7.84128543 13.011816,8.27005634 13.0640502,8.70157578 C13.1190336,9.15508347 13.1520236,9.71853242 13.1630203,10.3561917 L13.1630203,11.2329733 C13.1630203,11.7496972 13.5781448,12.167474 14.0949885,12.167474 L18.2599793,12.167474 C18.776823,12.167474 19.1919475,11.7496972 19.1919475,11.2329733 C19.1919475,10.8096994 19.1864492,10.4936183 19.1754525,10.3012211 C19.1177199,8.84999648 18.9197798,7.54994109 18.5843812,6.43403731 C18.2379859,5.2796541 17.7128947,4.25445186 17.0228533,3.38316738 C16.3053202,2.47890053 15.3623553,1.78352207 14.2187011,1.31627172 C13.1107861,0.865512559 11.8049309,0.637384448 10.3368747,0.637384448 C2.54298115,0.637384448 0.909974878,6.96725242 0.909974878,12.2746667 L0.909974878,19.6627193 C0.909974878,21.1441777 0.981453267,22.479964 1.12715921,23.6343472 C1.27561433,24.8162158 1.55053121,25.9596049 1.94091318,27.0260351 C2.35328851,28.1501844 2.91686811,29.0956793 3.6234045,29.8377828 C4.33269005,30.5853833 5.25641078,31.1818147 6.36157664,31.6105856 C7.44749832,32.0283623 8.73136016,32.2427478 10.1719246,32.2427478 C11.4008031,32.2427478 12.945836,31.8524563 14.1444736,30.2610566 L14.4963672,31.3109956 C14.6228289,31.6930415 14.9774717,31.9486549 15.3788504,31.9486549 L18.5046553,31.9486549 C19.0187499,31.9486549 19.4366235,31.5308782 19.4366235,31.0169028 L19.4366235,16.4716742 C19.4366235,15.9576989 19.0187499,15.5399221 18.5046553,15.5399221" id="Fill-9"></path>
                </g>
                <path d="M120.205193,1.39593538 L116.040202,1.39593538 C115.523359,1.39593538 115.105485,1.81371217 115.105485,2.32768755 L115.105485,15.559118 L109.612646,1.97862406 C109.472438,1.62681203 109.128792,1.39593538 108.749407,1.39593538 L105.623602,1.39593538 C105.109507,1.39593538 104.691634,1.81371217 104.691634,2.32768755 L104.691634,31.4813608 C104.691634,31.9980848 105.109507,32.4158615 105.623602,32.4158615 L109.791342,32.4158615 C110.305436,32.4158615 110.72331,31.9980848 110.72331,31.4813608 L110.72331,17.1175354 L116.372852,31.8166817 C116.51031,32.1767393 116.856706,32.4158615 117.244338,32.4158615 L120.205193,32.4158615 C120.719288,32.4158615 121.137161,31.9980848 121.137161,31.4813608 L121.137161,2.32768755 C121.137161,1.81371217 120.719288,1.39593538 120.205193,1.39593538" id="Fill-12" fill="#FFFFFF"></path>
                <path d="M142.950513,1.10321678 L138.785523,1.10321678 C138.268679,1.10321678 137.853555,1.52099357 137.853555,2.03496895 L137.853555,31.1886422 C137.853555,31.7053662 138.268679,32.1231429 138.785523,32.1231429 L142.950513,32.1231429 C143.464608,32.1231429 143.882482,31.7053662 143.882482,31.1886422 L143.882482,2.03496895 C143.882482,1.52099357 143.464608,1.10321678 142.950513,1.10321678" id="Fill-14" fill="#FFFFFF"></path>
                <path d="M283.924271,26.2727273 L279.75928,26.2727273 C279.242436,26.2727273 278.827312,26.6905041 278.827312,27.2044794 L278.827312,31.354762 C278.827312,31.8687373 279.242436,32.2865141 279.75928,32.2865141 L283.924271,32.2865141 C284.438366,32.2865141 284.856239,31.8687373 284.856239,31.354762 L284.856239,27.2044794 C284.856239,26.6905041 284.438366,26.2727273 283.924271,26.2727273" id="Fill-16" fill="#FCEB18"></path>
                <path d="M163.278044,16.1761634 L158.071118,12.0093897 C156.905471,11.0831345 156.339142,9.97547636 156.339142,8.62319888 C156.339142,7.87010126 156.517838,7.32039497 156.888976,6.93834909 C157.251866,6.56454881 157.787954,6.38314573 158.53023,6.38314573 C159.489689,6.38314573 160.18248,6.66074741 160.64434,7.23244196 C161.177679,7.89208951 161.529573,8.81009902 161.689025,9.93424839 C161.727513,10.2805634 161.755005,10.5389253 161.763252,10.7120828 C161.779747,10.9869359 161.919955,11.2425494 162.142637,11.4074613 C162.36532,11.5723731 162.651234,11.6300923 162.920652,11.561379 L167.088392,10.5196856 C167.539256,10.4069958 167.838915,9.9782249 167.78943,9.51372308 C167.742694,9.09869483 167.704206,8.77436811 167.668467,8.52974881 C167.308326,6.19349706 166.332371,4.34923245 164.762595,3.04917706 C163.203817,1.75736727 161.106201,1.10321678 158.53023,1.10321678 C156.091717,1.10321678 154.090322,1.82882909 152.581028,3.26081399 C151.060738,4.70929007 150.290971,6.66074741 150.290971,9.06296392 C150.290971,10.6736034 150.609874,12.1413192 151.242183,13.4193863 C151.868994,14.6947049 152.726734,15.7638836 153.782415,16.5911916 L158.986592,20.7552168 C159.456699,21.1317656 159.825088,21.4450982 160.086259,21.6897175 C160.333684,21.9233427 160.619598,22.2449208 160.938501,22.648955 C161.213418,22.9952699 161.422355,23.3855614 161.554315,23.8005897 C161.691774,24.2321091 161.763252,24.7158506 161.763252,25.2325745 C161.763252,26.8102316 161.147438,27.4259027 159.572165,27.4259027 C158.838136,27.4259027 156.603062,27.4259027 156.336393,22.0635178 C156.322647,21.7859161 156.185189,21.5275541 155.962506,21.3626422 C155.737074,21.1949818 155.448411,21.1372627 155.178993,21.2059759 L151.014002,22.2476694 C150.576884,22.3548621 150.279974,22.7588962 150.307466,23.2096554 C150.483412,26.0791222 151.343902,28.3933857 152.864193,30.0864811 C154.425721,31.8263015 156.682788,32.7058316 159.572165,32.7058316 C162.024423,32.7058316 164.023069,32.0159502 165.513118,30.6554271 C167.02791,29.2756643 167.794928,27.3571894 167.794928,24.9577214 C167.794928,21.5522909 166.277387,18.6003681 163.278044,16.1761634" id="Fill-18" fill="#FFFFFF"></path>
                <path d="M198.288982,1.10321678 L194.123991,1.10321678 C193.678626,1.10321678 193.293742,1.4192979 193.208518,1.85631441 L190.1267,17.5146982 L189.953502,18.6388476 L189.783054,17.4734702 L186.706734,1.85631441 C186.621509,1.4192979 186.236626,1.10321678 185.79126,1.10321678 L181.62627,1.10321678 C181.343105,1.10321678 181.076436,1.22964923 180.900489,1.44953175 C180.724542,1.66941427 180.655813,1.95526154 180.713546,2.23011469 L186.962406,31.383788 C187.055878,31.8153074 187.435263,32.1231429 187.87513,32.1231429 L192.040121,32.1231429 C192.479988,32.1231429 192.862123,31.8153074 192.952845,31.383788 L199.201706,2.23011469 C199.259438,1.95526154 199.190709,1.66941427 199.014762,1.44953175 C198.836066,1.22964923 198.569397,1.10321678 198.288982,1.10321678" id="Fill-20" fill="#FFFFFF"></path>
                <path d="M210.665335,1.10321678 L206.500344,1.10321678 C205.9835,1.10321678 205.568376,1.52099357 205.568376,2.03496895 L205.568376,31.1886422 C205.568376,31.7053662 205.9835,32.1231429 206.500344,32.1231429 L210.665335,32.1231429 C211.179429,32.1231429 211.597303,31.7053662 211.597303,31.1886422 L211.597303,2.03496895 C211.597303,1.52099357 211.179429,1.10321678 210.665335,1.10321678" id="Fill-22" fill="#FFFFFF"></path>
                <path d="M232.137416,1.10321678 L217.558574,1.10321678 C217.04173,1.10321678 216.623857,1.52099357 216.623857,2.03496895 L216.623857,5.74548643 C216.623857,6.25946182 217.04173,6.6772386 217.558574,6.6772386 L221.833532,6.6772386 L221.833532,31.1886422 C221.833532,31.7053662 222.248656,32.1231429 222.7655,32.1231429 L226.930491,32.1231429 C227.444585,32.1231429 227.862459,31.7053662 227.862459,31.1886422 L227.862459,6.6772386 L232.137416,6.6772386 C232.651511,6.6772386 233.069385,6.25946182 233.069385,5.74548643 L233.069385,2.03496895 C233.069385,1.52099357 232.651511,1.10321678 232.137416,1.10321678" id="Fill-24" fill="#FFFFFF"></path>
                <path d="M246.216631,19.8454529 L244.253724,19.8454529 L245.235178,13.9553499 L246.216631,19.8454529 Z M248.229023,1.83982322 C248.1383,1.41105231 247.756166,1.10321678 247.316299,1.10321678 L243.151308,1.10321678 C242.711441,1.10321678 242.332055,1.41105231 242.241333,1.83982322 L235.992472,30.996245 C235.93199,31.2710982 236.00072,31.5569455 236.176666,31.776828 C236.355362,31.9967105 236.622032,32.1231429 236.902447,32.1231429 L241.070187,32.1231429 C241.510054,32.1231429 241.889439,31.8153074 241.980162,31.3865365 L243.384987,24.8340375 L247.085368,24.8340375 L248.490194,31.3865365 C248.580916,31.8153074 248.960301,32.1231429 249.400168,32.1231429 L253.567908,32.1231429 C253.848324,32.1231429 254.114993,31.9967105 254.29094,31.776828 C254.469636,31.5569455 254.538365,31.2710982 254.477883,30.996245 L248.229023,1.83982322 Z" id="Fill-26" fill="#FFFFFF"></path>
                <g id="Group-30" transform="translate(260.662181, 1.103217)">
                    <mask id="mask-2" fill="white">
                        <use xlink:href="#path-1"></use>
                    </mask>
                    <g id="Clip-29"></g>
                    <path d="M12.3877547,26.0313415 L6.03167638,26.0313415 L6.03167638,0.934500699 C6.03167638,0.417776783 5.61380272,0 5.09695898,0 L0.931968228,0 C0.41787366,0 0,0.417776783 0,0.934500699 L0,30.088174 C0,30.6021494 0.41787366,31.0199262 0.931968228,31.0199262 L12.3877547,31.0199262 C12.9018493,31.0199262 13.3197229,30.6021494 13.3197229,30.088174 L13.3197229,26.9630937 C13.3197229,26.4491183 12.9018493,26.0313415 12.3877547,26.0313415" id="Fill-28" fill="#FFFFFF" mask="url(#mask-2)"></path>
                </g>
                <path d="M301.805473,31.9116011 C295.135989,31.9116011 289.70913,26.486 289.70913,19.8180627 C289.70913,13.1501253 295.135989,7.72727273 301.805473,7.72727273 C304.425431,7.72727273 306.918927,8.54908364 309.016543,10.1102495 C309.706584,10.6214764 309.849541,11.5944565 309.338196,12.2843379 C308.824101,12.9714708 307.850895,13.1171429 307.160854,12.6031676 C305.604824,11.4460358 303.751884,10.8331133 301.805473,10.8331133 C296.851471,10.8331133 292.81844,14.865209 292.81844,19.8180627 C292.81844,24.7736649 296.851471,28.803012 301.805473,28.803012 C304.320962,28.803012 306.737482,27.7393303 308.436468,25.8840716 C308.494201,25.8208554 308.557432,25.7603877 308.626161,25.7081656 C308.645405,25.6916744 311.40832,23.4378786 316.442048,15.7145052 C316.909406,14.9943899 317.874365,14.7937471 318.591898,15.2609975 C319.31218,15.7309964 319.515618,16.6929824 319.045511,17.4130976 C314.173983,24.8836062 311.262614,27.5469331 310.655047,28.0636571 C308.370488,30.5098501 305.153961,31.9116011 301.805473,31.9116011" id="Fill-42" fill="#FCEB18"></path>
                <g id="Group-46" transform="translate(316.136403, 7.727273)">
                    <mask id="mask-4" fill="white">
                        <use xlink:href="#path-3"></use>
                    </mask>
                    <g id="Clip-45"></g>
                    <path d="M12.1958627,3.6593948 C7.24186049,3.6593948 3.20882984,7.68874193 3.20882984,12.6443442 C3.20882984,17.5971979 7.24186049,21.6292935 12.1958627,21.6292935 C17.1498649,21.6292935 21.1828956,17.5971979 21.1828956,12.6443442 C21.1828956,7.68874193 17.1498649,3.6593948 12.1958627,3.6593948 M12.1958627,24.7378826 C5.52637915,24.7378826 0.0995199111,19.3122815 0.0995199111,12.6443442 C0.0995199111,5.97640683 5.52637915,0.550805706 12.1958627,0.550805706 C18.8653462,0.550805706 24.2922055,5.97640683 24.2922055,12.6443442 C24.2922055,19.3122815 18.8653462,24.7378826 12.1958627,24.7378826" id="Fill-44" fill="#FCEB18" mask="url(#mask-4)"></path>
                </g>
            </g>
        </g>
    </g>
</svg>